<?xml version="1.0" standalone="no"?>
<!DOCTYPE svg PUBLIC "-//W3C//DTD SVG 20010904//EN"
 "http://www.w3.org/TR/2001/REC-SVG-20010904/DTD/svg10.dtd">
<svg version="1.0" xmlns="http://www.w3.org/2000/svg"
 width="150.000000pt" height="150.000000pt" viewBox="0 0 150.000000 150.000000"
 preserveAspectRatio="xMidYMid meet">

<g transform="translate(0.000000,150.000000) scale(0.100000,-0.100000)"
fill="#000000" stroke="none">
<path d="M590 1470 c-36 -10 -87 -27 -115 -37 -61 -24 -147 -78 -138 -87 3 -3
1 -6 -6 -6 -17 0 -106 -71 -133 -105 -17 -22 -18 -28 -6 -43 12 -15 11 -16 -5
-3 -15 12 -20 12 -32 -5 -35 -45 -85 -145 -111 -224 -25 -75 -29 -99 -28 -205
0 -79 5 -141 16 -180 21 -77 69 -185 80 -179 4 3 5 -3 1 -12 -5 -14 -3 -16 11
-11 9 4 15 3 12 -1 -8 -13 39 -87 53 -84 7 1 10 -2 7 -7 -13 -20 160 -161 196
-161 11 0 17 -4 14 -8 -6 -10 94 -54 128 -56 13 0 22 -4 20 -7 -5 -9 20 -14
124 -30 67 -10 98 -10 158 0 74 12 207 53 228 70 6 4 38 23 71 41 61 34 78 47
142 110 87 86 159 205 178 295 2 11 9 36 15 55 32 104 20 304 -26 406 -9 21
-18 41 -19 44 -16 59 -49 108 -130 198 -53 58 -188 162 -170 131 5 -8 -3 -2
-18 14 -14 15 -33 27 -42 27 -8 0 -15 5 -15 10 0 6 -6 10 -13 10 -8 0 -28 7
-45 15 -89 45 -289 57 -402 25z m-283 -185 c0 -8 -4 -12 -9 -9 -5 3 -6 10 -3
15 9 13 12 11 12 -6z m185 -100 c-4 -51 -7 -53 -33 -22 -11 15 -29 27 -40 27
-11 0 -19 7 -19 18 0 14 9 17 48 17 l47 0 -3 -40z m348 33 c0 -4 -10 -8 -22
-8 -13 0 -33 -3 -45 -6 -13 -4 -23 -2 -23 4 0 6 8 12 18 15 29 7 72 4 72 -5z
m-170 -3 c0 -14 -31 -65 -39 -65 -5 0 -11 7 -15 15 -3 8 -10 15 -16 15 -14 0
-13 -33 2 -48 9 -9 8 -12 -4 -12 -16 0 -28 35 -20 58 2 7 19 12 38 12 46 0 43
18 -3 23 -35 3 -34 4 10 5 26 1 47 0 47 -3z m350 -71 c0 -44 -4 -73 -9 -69 -5
3 -13 -5 -17 -17 -9 -31 -17 -34 -69 -33 -24 1 -42 -1 -40 -5 5 -9 -79 -5 -94
4 -5 3 -28 7 -51 8 -39 1 -62 19 -46 35 3 4 70 8 149 10 154 3 169 6 162 25
-4 9 -21 12 -55 10 -32 -3 -50 0 -50 7 0 6 7 11 16 11 9 0 14 8 13 18 -1 9 -1
29 0 45 1 25 4 27 46 27 l45 0 0 -76z m-178 19 c3 -16 8 -35 12 -43 4 -11 -1
-15 -19 -16 -16 -1 -25 3 -25 13 0 11 -7 13 -30 8 -25 -6 -30 -4 -30 13 0 12
12 26 33 36 45 22 54 20 59 -11z m-402 -9 c0 -12 -4 -12 -20 -2 -11 7 -20 16
-20 19 0 4 9 5 20 2 11 -3 20 -12 20 -19z m283 -48 c4 -10 0 -12 -14 -9 -10 3
-16 9 -13 14 8 13 21 11 27 -5z m-140 -20 c3 -8 -4 -11 -24 -8 -21 3 -29 1
-27 -9 3 -13 -35 -21 -59 -12 -15 6 -17 33 -3 33 6 0 10 -6 10 -12 0 -7 6 -3
14 8 11 15 23 19 50 16 19 -2 37 -9 39 -16z m87 -42 c0 -16 -5 -24 -12 -21 -7
2 -12 12 -10 22 3 12 -1 16 -12 12 -8 -3 -18 -2 -21 3 -5 9 34 19 48 12 4 -2
7 -15 7 -28z m-99 -14 c11 0 19 -4 19 -9 0 -14 -31 -22 -45 -11 -12 10 -101 7
-112 -4 -7 -7 -23 2 -23 14 0 10 72 19 114 14 16 -2 37 -4 47 -4z m215 -41 c7
-5 15 -24 19 -42 5 -25 8 -28 14 -14 10 26 105 67 144 63 18 -2 38 -4 45 -5 9
-1 12 -14 10 -43 -3 -38 -6 -43 -25 -40 -18 3 -22 -3 -25 -30 -2 -18 -7 -31
-13 -28 -5 3 -9 13 -8 23 2 10 -1 16 -6 12 -5 -3 -12 -1 -15 4 -3 4 -19 11
-35 14 -20 4 -31 13 -34 29 -3 17 -5 14 -6 -10 0 -20 3 -31 9 -27 6 3 10 -1
10 -10 0 -13 -5 -15 -17 -9 -20 9 -53 8 -125 -1 -36 -4 -46 -2 -43 7 7 20 -20
49 -39 42 -23 -9 -20 -23 4 -17 11 3 20 0 20 -6 0 -7 -17 -9 -49 -6 -36 4 -50
1 -54 -9 -3 -8 -15 -16 -27 -18 -11 -2 -20 -7 -20 -12 3 -16 -23 -25 -54 -19
-24 5 -28 3 -23 -10 4 -10 2 -17 -3 -17 -11 0 -13 33 -3 44 16 15 10 38 -13
48 -13 6 -24 19 -24 30 0 15 8 18 43 18 23 -1 61 -5 84 -9 38 -7 44 -6 62 18
34 42 159 60 197 30z m-379 -11 c-3 -8 -6 -5 -6 6 -1 11 2 17 5 13 3 -3 4 -12
1 -19z m261 -147 c2 -13 -2 -21 -12 -21 -8 0 -18 -9 -21 -20 -8 -25 -41 -19
-68 13 -13 15 -20 18 -26 9 -8 -13 -69 -13 -77 0 -3 4 10 8 29 8 20 0 41 7 50
18 12 13 29 17 69 16 45 -2 53 -5 56 -23z m153 7 c1 -7 1 -17 0 -22 -1 -4 1
-16 4 -27 5 -15 11 -16 30 -9 14 5 41 9 61 8 28 -1 38 -7 45 -25 8 -22 39 -33
39 -13 0 6 -7 10 -15 10 -30 0 -14 18 21 25 39 7 71 -9 41 -21 -12 -4 -17 -18
-17 -50 0 -24 -4 -44 -10 -44 -5 0 -10 14 -10 30 0 17 -4 30 -10 30 -5 0 -10
-10 -10 -23 0 -15 -6 -23 -19 -24 -17 -1 -19 3 -14 31 6 40 -13 59 -59 54 -33
-3 -33 -3 -31 -52 l2 -49 -34 6 c-19 3 -35 2 -35 -4 0 -5 -9 -9 -20 -9 -24 0
-39 62 -20 85 19 23 -6 48 -42 41 -15 -3 -29 -2 -29 2 -1 4 -3 19 -5 35 l-3
27 70 0 c48 0 69 -4 70 -12z m127 -14 c6 -2 12 -8 12 -14 0 -6 -4 -9 -8 -6 -5
3 -25 6 -46 8 -20 1 -42 8 -48 15 -9 11 -3 13 33 8 24 -4 50 -8 57 -11z m-465
-41 c-7 -2 -21 -2 -30 0 -10 3 -4 5 12 5 17 0 24 -2 18 -5z m185 -40 c-3 -42
0 -48 16 -48 14 0 22 11 30 38 12 42 32 47 27 7 -4 -34 -28 -70 -47 -70 -34 0
-54 20 -54 55 0 39 8 65 22 65 5 0 8 -21 6 -47z m-333 27 c3 -6 -1 -7 -9 -4
-18 7 -21 14 -7 14 6 0 13 -4 16 -10z m140 -48 c3 -21 8 -45 10 -54 4 -22 -11
-23 -31 -3 -17 17 -44 20 -44 5 0 -5 -7 -10 -15 -10 -21 0 -19 10 15 63 34 55
56 54 65 -1z m-210 28 c-3 -5 -1 -10 4 -10 6 0 11 -5 11 -11 0 -8 -5 -8 -15 1
-13 11 -12 30 1 30 3 0 2 -4 -1 -10z m322 4 c-3 -3 -12 -4 -19 -1 -8 3 -5 6 6
6 11 1 17 -2 13 -5z m113 -23 c0 -20 -13 -35 -23 -25 -7 8 4 44 14 44 5 0 9
-9 9 -19z m-370 -25 c0 -11 -19 -15 -25 -6 -3 5 1 10 9 10 9 0 16 -2 16 -4z
m221 -48 c14 2 31 -4 39 -12 8 -11 9 -16 1 -16 -6 0 -11 5 -11 10 0 6 -11 10
-25 10 -15 0 -24 -5 -22 -12 3 -17 -52 -23 -67 -8 -8 9 -6 11 12 5 18 -5 22
-2 22 15 0 14 4 19 12 13 7 -4 25 -6 39 -5z m343 -28 c9 0 16 6 16 13 0 8 3 8
9 -2 8 -12 16 -13 45 -4 31 10 34 9 33 -8 -1 -22 -26 -32 -79 -32 -21 0 -35
-4 -32 -9 4 -6 -4 -5 -16 2 -18 9 -24 9 -30 0 -6 -9 -13 -9 -28 -1 -11 6 -33
11 -48 11 -15 0 -33 8 -41 18 -8 9 -12 11 -8 5 8 -16 -11 -17 -20 -2 -11 17 0
21 76 25 40 3 75 7 78 10 3 3 11 -2 17 -10 6 -9 19 -16 28 -16z m136 -2 c0 -5
-4 -8 -10 -8 -5 0 -10 10 -10 23 0 18 2 19 10 7 5 -8 10 -18 10 -22z m-360
-13 c0 -15 -6 -25 -14 -25 -9 0 -12 7 -9 19 3 13 -1 21 -14 24 -12 3 -9 5 10
6 22 1 27 -3 27 -24z m-81 -22 c11 -9 -19 -25 -36 -18 -35 15 -73 13 -140 -9
-19 -6 -23 -4 -23 13 0 17 8 20 53 23 52 4 138 -1 146 -9z m304 -27 l98 0 -3
-31 -3 -30 -74 -3 c-58 -2 -77 1 -92 14 -13 12 -28 15 -49 10 -19 -3 -29 -2
-25 4 3 6 -1 10 -9 10 -9 0 -16 4 -16 8 0 5 -26 7 -57 4 -32 -2 -55 -2 -52 2
13 14 88 25 134 19 28 -3 94 -6 148 -7z m-298 -32 c19 -26 -5 -38 -73 -37 -29
1 -50 -2 -47 -7 3 -5 13 -6 22 -3 11 4 14 2 11 -8 -3 -8 -34 -20 -76 -28 -45
-9 -72 -20 -72 -28 0 -8 12 -13 29 -13 24 0 29 -5 33 -30 3 -17 -2 -43 -10
-60 -12 -26 -19 -29 -53 -27 -39 2 -46 7 -32 21 13 12 32 87 26 102 -2 7 2 38
11 68 l16 55 48 6 c26 4 52 8 57 9 30 9 97 -3 110 -20z m93 -3 c6 -1 12 -12
12 -25 0 -29 -16 -36 -51 -24 -39 14 -30 61 10 53 9 -2 22 -4 29 -4z m352 -11
c0 -11 -2 -20 -4 -20 -2 0 -6 9 -9 20 -3 11 -1 20 4 20 5 0 9 -9 9 -20z m-12
-85 c-2 -1 -19 -5 -38 -9 -26 -4 -31 -3 -20 5 12 8 12 12 2 16 -10 4 -9 8 5
19 16 12 20 11 36 -8 10 -11 16 -22 15 -23z m-148 25 c0 -5 -9 -10 -20 -10
-11 0 -20 5 -20 10 0 6 9 10 20 10 11 0 20 -4 20 -10z m43 3 c-7 -2 -19 -2
-25 0 -7 3 -2 5 12 5 14 0 19 -2 13 -5z m-103 -14 c0 -5 -10 -9 -22 -9 -19 0
-20 -2 -8 -11 15 -10 6 -9 -50 7 -36 10 -21 21 30 22 28 0 50 -3 50 -9z m-205
-19 c-3 -5 -15 -10 -25 -10 -10 0 -22 5 -25 10 -4 6 7 10 25 10 18 0 29 -4 25
-10z m29 -15 c-4 -8 -11 -15 -16 -15 -6 0 -5 6 2 15 7 8 14 15 16 15 2 0 1 -7
-2 -15z m-136 -38 c3 -23 0 -28 -15 -25 -10 2 -17 11 -17 21 1 9 -4 17 -12 17
-7 0 -16 5 -19 11 -5 7 5 9 26 7 29 -3 34 -7 37 -31z m112 18 c22 -13 23 -14
5 -15 -15 -1 -17 -3 -5 -8 22 -10 22 -29 0 -35 -23 -6 -35 8 -39 46 -3 30 3
32 39 12z m446 -20 c3 -13 4 -30 1 -37 -4 -8 -6 -7 -6 5 -1 9 -9 18 -18 18
-10 1 -22 2 -28 4 -5 1 -17 3 -24 3 -19 2 -3 18 24 25 38 9 45 7 51 -18z
m-128 -3 c3 -10 -5 -12 -29 -9 -19 2 -42 7 -52 12 -12 5 -24 1 -38 -11 -14
-13 -23 -14 -30 -7 -23 23 3 34 74 31 47 -2 72 -7 75 -16z m-46 -64 c15 -15
15 -18 3 -18 -8 0 -15 5 -15 10 0 6 -16 10 -35 10 -36 0 -48 16 -17 22 23 6
42 -2 64 -24z m53 22 c-3 -5 -14 -10 -23 -10 -15 0 -15 2 -2 10 20 13 33 13
25 0z m-389 -11 c91 -17 83 -24 -29 -24 -56 0 -90 1 -75 3 19 2 25 8 21 18 -6
17 5 17 83 3z m231 -21 c-3 -8 -6 -5 -6 6 -1 11 2 17 5 13 3 -3 4 -12 1 -19z"/>
<path d="M610 940 c0 -5 5 -10 11 -10 5 0 7 5 4 10 -3 6 -8 10 -11 10 -2 0 -4
-4 -4 -10z"/>
<path d="M930 926 c0 -2 7 -7 16 -10 8 -3 12 -2 9 4 -6 10 -25 14 -25 6z"/>
<path d="M475 910 c3 -5 10 -10 16 -10 5 0 9 5 9 10 0 6 -7 10 -16 10 -8 0
-12 -4 -9 -10z"/>
<path d="M706 906 c6 -17 64 -23 64 -7 0 14 -28 21 -33 8 -3 -9 -8 -8 -21 2
-14 12 -16 12 -10 -3z"/>
<path d="M727 823 c4 -10 2 -14 -5 -9 -6 3 -13 2 -16 -3 -7 -10 49 -20 75 -14
28 8 1 43 -33 43 -21 0 -26 -4 -21 -17z"/>
<path d="M776 734 c-7 -64 -4 -73 19 -50 20 19 32 20 38 4 2 -7 8 -10 12 -6
12 11 -29 103 -47 106 -12 2 -17 -10 -22 -54z m37 6 c3 -11 1 -23 -4 -26 -5
-3 -9 6 -9 20 0 31 6 34 13 6z"/>
<path d="M436 722 c-4 -13 -5 -26 -2 -29 10 -11 18 4 14 29 l-4 23 -8 -23z"/>
<path d="M758 618 c5 -5 16 -8 23 -6 8 3 3 7 -10 11 -17 4 -21 3 -13 -5z"/>
<path d="M785 550 c3 -5 8 -10 11 -10 2 0 4 5 4 10 0 6 -5 10 -11 10 -5 0 -7
-4 -4 -10z"/>
<path d="M835 530 c3 -5 11 -10 16 -10 6 0 7 5 4 10 -3 6 -11 10 -16 10 -6 0
-7 -4 -4 -10z"/>
<path d="M433 523 c9 -2 23 -2 30 0 6 3 -1 5 -18 5 -16 0 -22 -2 -12 -5z"/>
<path d="M363 345 c-15 -16 -7 -45 12 -45 7 0 18 7 25 15 10 12 9 15 -6 16
-11 0 -14 3 -6 6 6 2 10 9 6 14 -7 12 -17 11 -31 -6z"/>
<path d="M650 512 c0 -4 9 -8 20 -9 11 -1 18 2 15 8 -7 11 -35 12 -35 1z"/>
</g>
</svg>
